<?xml version="1.0" encoding="UTF-8"?>
<svg width="361px" height="361px" viewBox="0 0 361 361" version="1.1" xmlns="http://www.w3.org/2000/svg" xmlns:xlink="http://www.w3.org/1999/xlink">
    <!-- Generator: Sketch 50 (54983) - http://www.bohemiancoding.com/sketch -->
    <title>Group</title>
    <desc>Created with Sketch.</desc>
    <defs></defs>
    <g id="Page-1" stroke="none" stroke-width="1" fill="none" fill-rule="evenodd">
        <g id="Group">
            <circle id="Oval" fill="#DCE7F4" cx="180.5" cy="180.5" r="180.5"></circle>
            <path d="M264.883999,118.748742 L217.315761,71.1183568 C215.206082,69.0059215 212.594098,68 209.982115,68 L104.447934,68 C98.7216625,68 94,72.7278313 94,78.4615841 L94,244.841008 C94,250.574761 98.7216625,255.302592 104.447934,255.302592 L170.802362,255.302592 L170.802362,279.746485 L162.464107,272.101482 C158.294979,268.429868 151.513868,268.429868 147.847045,272.604442 C144.180222,276.779017 144.180222,283.568987 148.349349,287.240601 L174.469185,311.332422 C176.026329,312.8916 181.802831,316.462622 189.086246,311.332422 L215.206082,287.240601 C219.375209,283.066026 219.375209,276.779017 215.708386,272.604442 C211.539259,268.429868 205.260452,268.429868 201.091324,272.101482 L191.69823,280.752407 L191.69823,255.352888 L258.052657,255.352888 C263.778929,255.352888 267.998287,250.625057 267.998287,245.394265 L267.998287,126.091969 C268.048517,123.476573 266.993678,120.861177 264.883999,118.748742 Z M220.982584,103.408438 L240.723151,122.973612 L220.982584,122.973612 L220.982584,103.408438 Z M191.74846,234.932681 L191.74846,169.54778 C191.74846,163.814027 187.026798,159.086196 181.300526,159.086196 C175.574255,159.086196 170.852592,163.814027 170.852592,169.54778 L170.852592,234.932681 L114.946099,234.932681 L114.946099,88.9231682 L200.136946,88.9231682 L200.136946,132.328683 C200.136946,138.062436 204.858608,142.790267 210.58488,142.790267 L248.207489,142.790267 L248.207489,234.882384 L191.74846,234.882384 L191.74846,234.932681 Z" id="Shape" fill="#4A90E2" fill-rule="nonzero"></path>
        </g>
    </g>
</svg>