<?xml version="1.0" encoding="UTF-8"?>
<svg width="321px" height="60px" viewBox="0 0 321 60" version="1.1" xmlns="http://www.w3.org/2000/svg" xmlns:xlink="http://www.w3.org/1999/xlink">
    <!-- Generator: Sketch 50 (54983) - http://www.bohemiancoding.com/sketch -->
    <title>Group</title>
    <desc>Created with Sketch.</desc>
    <defs></defs>
    <g id="Page-1" stroke="none" stroke-width="1" fill="none" fill-rule="evenodd">
        <g id="Artboard" transform="translate(0.000000, -134.000000)">
            <g id="Group" transform="translate(0.000000, 134.000000)">
                <rect id="Rectangle" fill="#729CE0" x="0" y="0" width="321" height="60"></rect>
                <g id="facebook-logo" transform="translate(152.000000, 14.000000)" fill="#FFFFFF" fill-rule="nonzero">
                    <path d="M16.0480073,0.643565521 L12.0605278,0.63716764 C7.58073138,0.63716764 4.68569012,3.60738401 4.68569012,8.20458159 L4.68569012,11.6936661 L0.676457826,11.6936661 C0.330012556,11.6936661 0.0494654631,11.9745331 0.0494654631,12.3209784 L0.0494654631,17.3762643 C0.0494654631,17.7227095 0.33033245,18.0032566 0.676457826,18.0032566 L4.68569012,18.0032566 L4.68569012,30.7593523 C4.68569012,31.1057976 4.96623721,31.3863446 5.31268248,31.3863446 L10.5435902,31.3863446 C10.8900355,31.3863446 11.1705826,31.1054777 11.1705826,30.7593523 L11.1705826,18.0032566 L15.8583102,18.0032566 C16.2047554,18.0032566 16.4853025,17.7227095 16.4853025,17.3762643 L16.4872219,12.3209784 C16.4872219,12.1546335 16.4210038,11.9953262 16.3036027,11.8776052 C16.1862016,11.7598842 16.0262545,11.6936661 15.8599096,11.6936661 L11.1705826,11.6936661 L11.1705826,8.73592563 C11.1705826,7.31431641 11.5093504,6.59263541 13.3612171,6.59263541 L16.0473675,6.59167573 C16.3934929,6.59167573 16.67404,6.31080874 16.67404,5.96468336 L16.67404,1.27055788 C16.67404,0.924752402 16.3938128,0.644205309 16.0480073,0.643565521 Z" id="Shape"></path>
                </g>
            </g>
        </g>
    </g>
</svg>