<?xml version="1.0" encoding="UTF-8"?>
<svg width="321px" height="60px" viewBox="0 0 321 60" version="1.1" xmlns="http://www.w3.org/2000/svg" xmlns:xlink="http://www.w3.org/1999/xlink">
    <!-- Generator: Sketch 50 (54983) - http://www.bohemiancoding.com/sketch -->
    <title>Group 2</title>
    <desc>Created with Sketch.</desc>
    <defs></defs>
    <g id="Page-1" stroke="none" stroke-width="1" fill="none" fill-rule="evenodd">
        <g id="Artboard" transform="translate(-363.000000, -134.000000)">
            <g id="Group-2" transform="translate(363.000000, 134.000000)">
                <rect id="Rectangle" fill="#D1835F" x="0" y="0" width="321" height="60"></rect>
                <g id="google-plus" transform="translate(138.000000, 16.000000)" fill="#FFFFFF" fill-rule="nonzero">
                    <path d="M16.1841549,17.2751694 L23.3909751,17.2751694 C22.1259513,20.7458598 18.6998076,23.2342461 14.688715,23.2055272 C9.82179115,23.1706542 5.79751177,19.3924566 5.60856854,14.6729819 C5.4060359,9.61405756 9.58845582,5.43574881 14.7574674,5.43574881 C17.1209187,5.43574881 19.2777102,6.30962429 20.9037091,7.74156491 C21.2888433,8.08081928 21.8751008,8.08296831 22.2538932,7.73697379 L24.9009103,5.3194079 C25.3148339,4.94127555 25.3163438,4.30271932 24.9036282,3.92331709 C22.3249608,1.55263922 18.8657999,0.0749827817 15.0512002,0.00269708301 C6.91506516,-0.151447285 0.0570400116,6.3219324 0.000367109298,14.2186566 C-0.0568091048,22.1746745 6.57210854,28.6415094 14.7574674,28.6415094 C22.6291624,28.6415094 29.0596746,22.660454 29.4904088,15.1262328 C29.5018843,15.031773 29.509434,11.8393826 29.509434,11.8393826 L16.1841549,11.8393826 C15.637961,11.8393826 15.195248,12.268994 15.195248,12.7990241 L15.195248,16.3155279 C15.195248,16.8455579 15.6380617,17.2751694 16.1841549,17.2751694 Z" id="Shape"></path>
                    <path d="M41.7585457,12.052775 L41.7585457,8.64533199 C41.7585457,8.18468343 41.385183,7.81132075 40.9245345,7.81132075 L38.0565976,7.81132075 C37.595949,7.81132075 37.2225864,8.18468343 37.2225864,8.64533199 L37.2225864,12.052775 L33.8151433,12.052775 C33.3544948,12.052775 32.9811321,12.4261377 32.9811321,12.8867863 L32.9811321,15.7547232 C32.9811321,16.2153717 33.3544948,16.5887344 33.8151433,16.5887344 L37.2225864,16.5887344 L37.2225864,19.9961774 C37.2225864,20.456826 37.595949,20.8301887 38.0565976,20.8301887 L40.9245345,20.8301887 C41.385183,20.8301887 41.7585457,20.456826 41.7585457,19.9961774 L41.7585457,16.5887344 L45.1659888,16.5887344 C45.6266373,16.5887344 46,16.2153717 46,15.7547232 L46,12.8867863 C46,12.4261377 45.6266373,12.052775 45.1659888,12.052775 L41.7585457,12.052775 Z" id="Shape"></path>
                </g>
            </g>
        </g>
    </g>
</svg>