<?xml version="1.0" encoding="utf-8"?>
<!-- Generator: Adobe Illustrator 16.0.0, SVG Export Plug-In . SVG Version: 6.00 Build 0)  -->
<!DOCTYPE svg PUBLIC "-//W3C//DTD SVG 1.1//EN" "http://www.w3.org/Graphics/SVG/1.1/DTD/svg11.dtd">
<svg version="1.1" id="圖層_1" xmlns="http://www.w3.org/2000/svg" xmlns:xlink="http://www.w3.org/1999/xlink" x="0px" y="0px"
	 width="2267.719px" height="2267.717px" viewBox="0 0 2267.719 2267.717" enable-background="new 0 0 2267.719 2267.717"
	 xml:space="preserve">
<title>Security Illustration</title>
<desc>Created with Sketch.</desc>
<g>
	<g transform="translate(-141.000000, -183.000000)">
		<g transform="translate(0.000000, 144.000000)">
			<g transform="translate(146.000000, 43.000000)">
				<g>
					<g>
						<g>
							<path fill="#78D9FF" d="M1135.469,2218.364c-600.946,0-1088.505-487.561-1088.505-1088.504
								c0-600.946,487.56-1088.507,1088.505-1088.507S2223.975,528.914,2223.975,1129.86
								C2223.974,1730.804,1736.413,2218.364,1135.469,2218.364z M1135.469,161.542c-532.915,0-968.316,435.401-968.316,968.315
								s435.402,968.317,968.316,968.317s968.315-435.402,968.315-968.317C2103.784,596.945,1668.383,161.542,1135.469,161.542z"/>
						</g>
					</g>
				</g>
				<g>
					<g>
						<g>
							<path fill="#78D9FF" d="M1017.547,1424.663c-15.874,0-31.748-6.805-43.087-18.143l-231.307-231.307
								c-22.678-22.678-27.213-61.229-6.804-83.908c22.677-27.213,63.496-29.479,88.441-4.534l192.756,192.756c0,0,0,0,2.268,0
								l428.599-428.6c22.679-22.678,58.961-27.213,83.906-6.804c27.213,22.679,29.48,63.496,4.535,88.441l-476.221,476.22
								C1049.295,1420.126,1033.421,1424.663,1017.547,1424.663z"/>
						</g>
					</g>
				</g>
			</g>
		</g>
	</g>
</g>
</svg>
